<svg xmlns="http://www.w3.org/2000/svg" viewBox="0 0 64 64" role="img" aria-label="Strength">
  <path fill="#4be0a7" stroke="#a9ffdf" stroke-width="2.5" stroke-linecap="round" stroke-linejoin="round" d="M9 48c5-8 9-16 12-25l2-10 9-4 8 5-2 10c8-4 17-1 20 7 4 11-7 22-21 24H17c-7 0-11-3-8-7Z"/>
  <g fill="#073b32" stroke="#baffea" stroke-width="2.4" stroke-linecap="round" stroke-linejoin="round">
    <path d="m20 25 9 5-8 9-7-3Z"/>
    <path d="m29 30 9-6 8 5-8 8Z"/>
    <path d="m21 39 10-4 7 2-4 9H19Z"/>
    <path d="m38 37 11-6 6 4-7 9-14 2Z"/>
  </g>
  <path fill="none" stroke="#e0fff3" stroke-width="2.5" stroke-linecap="round" d="M17 50h20c8-1 14-5 17-11"/>
</svg>
